<?xml version="1.0" encoding="UTF-8" standalone="no"?>
<!-- Created with Inkscape (http://www.inkscape.org/) -->

<svg
   width="123.73724mm"
   height="36.773743mm"
   viewBox="0 0 123.73724 36.773743"
   version="1.1"
   id="svg5"
   xml:space="preserve"
   inkscape:export-filename="bitmap.svg"
   inkscape:export-xdpi="96"
   inkscape:export-ydpi="96"
   xmlns:inkscape="http://www.inkscape.org/namespaces/inkscape"
   xmlns:sodipodi="http://sodipodi.sourceforge.net/DTD/sodipodi-0.dtd"
   xmlns="http://www.w3.org/2000/svg"
   xmlns:svg="http://www.w3.org/2000/svg"><sodipodi:namedview
     id="namedview7"
     pagecolor="#ffffff"
     bordercolor="#000000"
     borderopacity="0.25"
     inkscape:showpageshadow="2"
     inkscape:pageopacity="0.0"
     inkscape:pagecheckerboard="0"
     inkscape:deskcolor="#d1d1d1"
     inkscape:document-units="mm"
     showgrid="false" /><defs
     id="defs2" /><g
     inkscape:label="Capa 1"
     inkscape:groupmode="layer"
     id="layer1"
     transform="translate(-159.39579,-233.24175)"><path
       style="fill:rgb(213, 217, 221);stroke-width:0.169333"
       d="m 239.44506,269.97956 c -0.1397,-0.0352 -0.61595,-0.11169 -1.05834,-0.16988 l -0.80433,-0.10581 v -1.02679 -1.02679 l 0.55033,0.11148 c 2.70219,0.54738 4.19101,0.0913 4.19101,-1.28387 v -0.46205 l -0.71967,0.32667 c -2.59003,1.17566 -4.67268,-0.76362 -4.4944,-4.18498 0.16906,-3.24436 2.92755,-4.65052 7.30693,-3.72476 l 0.65353,0.13815 -0.0683,4.26451 c -0.0843,5.26659 -0.32325,6.00838 -2.18625,6.78679 -0.58731,0.24539 -2.85944,0.48627 -3.37055,0.35733 z M 241.99619,264.3 c 0.56921,-0.30463 0.4918,-4.01036 -0.0868,-4.15558 -1.59229,-0.39964 -2.81839,1.57754 -2.11901,3.41705 0.32016,0.84208 1.36111,1.1906 2.20581,0.73853 z m -28.96713,-0.24804 v -5.842 h 1.10066 c 1.06894,0 1.10067,0.0125 1.10067,0.43486 v 0.43487 l 0.52963,-0.37713 c 1.61519,-1.15012 4.1109,-0.3734 4.83571,1.50496 1.30593,3.38435 -0.57632,6.46911 -3.9473,6.46911 h -1.07937 v 1.60866 1.60867 h -1.27 -1.27 z m 4.57444,0.38251 c 0.97917,-0.6115 1.01768,-3.00443 0.0616,-3.82886 -0.49096,-0.42336 -1.35507,-0.42915 -1.85717,-0.0125 -0.32276,0.26787 -0.34728,3.97564 -0.0272,4.11621 0.30616,0.13447 1.44144,-0.0368 1.82278,-0.2749 z m 12.66223,2.07479 c -3.27413,-0.98697 -3.19953,-7.05609 0.0999,-8.12693 3.68652,-1.19647 6.60499,1.98203 5.36127,5.83896 -0.65167,2.02092 -3.03486,3.01936 -5.46116,2.28797 z m 2.6589,-2.21759 c 0.4255,-0.41797 0.57021,-2.69652 0.21419,-3.37238 -0.88486,-1.67974 -2.66651,-0.68461 -2.6678,1.49008 -0.001,2.07935 1.26451,3.05037 2.45361,1.8823 z m 20.28699,2.10994 c -2.63958,-1.30157 -1.16258,-4.46009 2.21933,-4.74596 0.94662,-0.08 1.28611,-0.17214 1.28611,-0.349 0,-0.91581 -1.087,-1.3398 -2.74509,-1.07073 -0.5857,0.0951 -1.12586,0.17339 -1.20036,0.17409 -0.0745,6.8e-4 -0.1126,-0.43376 -0.0847,-0.96549 l 0.0508,-0.96676 0.67733,-0.1461 c 4.3342,-0.93481 5.7249,0.28121 5.81582,5.0853 l 0.0585,3.09033 h -1.11682 c -0.87983,0 -1.11681,-0.0539 -1.11681,-0.254 0,-0.32712 -0.0511,-0.32112 -0.71558,0.084 -0.69054,0.42102 -2.33646,0.45484 -3.12853,0.0643 z m 2.91821,-1.66368 c 0.53724,-0.22447 0.58723,-0.30559 0.58723,-0.95287 v -0.70752 l -0.87509,0.0841 c -1.30587,0.12548 -1.80595,1.10535 -0.81824,1.60327 0.51971,0.262 0.40802,0.26472 1.1061,-0.027 z m 19.2139,1.81953 c -0.9085,-0.33058 -1.65133,-1.74827 -1.42039,-2.71082 0.34159,-1.42369 1.23826,-2.01235 3.33532,-2.18962 1.42947,-0.12083 1.61131,-0.31872 0.99371,-1.08143 -0.34727,-0.42885 -1.28517,-0.5216 -2.87497,-0.28432 l -0.89766,0.13398 0.051,-0.97374 0.051,-0.97375 0.67733,-0.1461 c 4.34217,-0.93653 5.72991,0.25729 5.81286,5.00063 l 0.0555,3.175 h -1.11386 c -0.99529,0 -1.11386,-0.0355 -1.11386,-0.33356 0,-0.31635 -0.0318,-0.31199 -0.6163,0.0847 -0.60529,0.41076 -2.18976,0.57195 -2.9397,0.29906 z m 2.6301,-1.81953 c 0.89858,-0.37545 0.90053,-1.6173 0.003,-1.6173 -1.70601,0 -2.22106,1.49614 -0.63753,1.85193 0.0263,0.006 0.31203,-0.0997 0.635,-0.23463 z m -116.00001,1.37121 c -0.92618,-0.4313 -1.83316,-1.3524 -2.26362,-2.29886 -0.41921,-0.92173 -0.41921,-26.87357 0,-27.7953 0.43046,-0.94646 1.33744,-1.86757 2.26362,-2.29886 l 0.8479,-0.39485 17.79217,-0.002 c 24.20931,-0.002 21.40892,-2.17125 21.40755,16.58084 -0.001,15.28842 0.059,14.87554 -2.34982,16.13393 l -0.90524,0.47294 -17.97233,-0.002 -17.97233,-0.002 -0.8479,-0.39485 z m 26.48646,-5.60519 c 1.01691,-0.52587 1.02572,-1.90253 0.0154,-2.41354 -0.57937,-0.29305 -11.3605,-0.31308 -11.9068,-0.0221 -1.14121,0.60781 -1.01047,2.11125 0.2228,2.56208 0.64258,0.2349 11.19084,0.12061 11.66856,-0.12642 z m -18.50281,-3.79614 c 0.3232,-0.1783 5.83692,-6.85283 5.99806,-7.26085 0.24508,-0.62055 -0.0521,-1.1011 -2.5759,-4.16573 -3.82174,-4.64064 -4.08812,-4.82778 -5.23694,-3.67896 -0.90946,0.90947 -0.84711,1.04665 2.06406,4.54124 2.01997,2.42478 2.31573,2.85358 2.12525,3.08127 -1.26663,1.51415 -4.17034,5.09743 -4.39576,5.42452 -0.86836,1.26009 0.65542,2.81198 2.02123,2.05851 z m 52.21559,5.65082 v -4.14867 h 1.10066 c 0.95443,0 1.10067,0.0413 1.10067,0.31044 0,0.50885 0.16474,0.52914 0.7994,0.0984 0.43259,-0.29356 0.83465,-0.40888 1.42556,-0.40888 h 0.82304 v 1.20507 c 0,1.20508 0,1.20508 -0.44437,1.12013 -0.55086,-0.1053 -1.57344,0.16058 -1.96863,0.51187 -0.2579,0.22926 -0.29633,0.60039 -0.29633,2.86184 v 2.59842 h -1.27 -1.27 z m 24.384,0 v -4.14867 h 1.10067 c 0.95442,0 1.10066,0.0413 1.10066,0.31044 0,0.50885 0.16474,0.52914 0.7994,0.0984 0.4326,-0.29356 0.83466,-0.40888 1.42557,-0.40888 h 0.82303 v 1.20507 c 0,1.20508 0,1.20508 -0.44437,1.12013 -0.55086,-0.1053 -1.57344,0.16058 -1.96863,0.51187 -0.2579,0.22926 -0.29633,0.60039 -0.29633,2.86184 v 2.59842 h -1.27 -1.27 z m 14.224,0 v -4.14867 h 1.10067 c 0.98777,0 1.10066,0.0347 1.10066,0.33867 0,0.18626 0.0384,0.33866 0.0853,0.33866 0.0469,0 0.36963,-0.1524 0.71716,-0.33866 0.9343,-0.50076 2.35401,-0.46283 3.16044,0.0844 l 0.62347,0.4231 0.50808,-0.37564 c 2.69057,-1.98922 4.55692,-0.0842 4.55731,4.65177 l 2.6e-4,3.175 h -1.27 -1.27 v -2.7819 c 0,-3.02578 -0.083,-3.3141 -0.95456,-3.3141 -1.05176,0 -1.07744,0.0768 -1.07744,3.22329 v 2.87271 h -1.27 -1.27 v -2.7819 c 0,-3.02246 -0.0835,-3.3141 -0.94938,-3.3141 -1.15123,0 -1.25195,0.26723 -1.25195,3.32148 v 2.77452 h -1.27 -1.27 z m -29.12534,-6.95816 c -0.23283,-0.0417 -0.67098,-0.1159 -0.97366,-0.16485 -0.55034,-0.089 -0.55034,-0.089 -0.55034,-1.1185 v -1.02949 l 0.55034,0.11148 c 2.70218,0.54737 4.191,0.0913 4.191,-1.28388 v -0.46205 l -0.71967,0.32667 c -2.59877,1.17963 -4.67802,-0.74227 -4.49326,-4.15322 0.17674,-3.26314 2.75828,-4.68377 6.89793,-3.79597 l 0.855,0.18336 -0.004,4.3463 c -0.005,5.33779 -0.18591,5.92272 -2.08181,6.71488 -0.64393,0.26905 -2.88003,0.46714 -3.6718,0.32527 z m 2.8898,-5.66313 c 0.55099,-0.29488 0.49394,-3.97957 -0.0638,-4.11955 -1.69195,-0.42465 -2.98584,1.83488 -2.06758,3.61061 0.3523,0.68128 1.35982,0.92185 2.13136,0.50894 z m -22.32221,2.17245 c 0.0667,-0.17632 2.06395,-6.35896 3.28452,-10.1675 l 0.25778,-0.80433 1.89139,0.004 1.89139,0.004 1.74385,5.45707 c 0.95912,3.00139 1.74017,5.51423 1.73567,5.58408 -0.005,0.0699 -0.57182,0.127 -1.26072,0.127 h -1.25252 l -0.46907,-1.52913 -0.46907,-1.52913 -1.95411,0.0475 -1.95411,0.0475 -0.4377,1.43934 -0.4377,1.43933 -1.32625,0.0498 c -1.03021,0.0387 -1.30775,8.4e-4 -1.24335,-0.16934 z m 6.6699,-5.13315 c -0.0543,-0.14152 -0.34262,-1.0577 -0.6407,-2.03594 -0.29809,-0.97824 -0.5947,-1.7197 -0.65914,-1.64768 -0.12121,0.13546 -1.17765,3.54155 -1.17765,3.7969 0,0.0792 0.57965,0.14404 1.28812,0.14404 1.08281,0 1.27238,-0.041 1.18937,-0.25732 z m 4.97318,1.18865 v -4.14866 h 1.08092 c 0.95288,0 1.09184,0.0418 1.17316,0.35273 0.0922,0.35274 0.0922,0.35274 0.60717,-0.028 0.33587,-0.24832 0.84061,-0.40772 1.45151,-0.45838 l 0.93657,-0.0777 v 1.2063 1.2063 h -0.77041 c -0.42372,0 -0.99522,0.11626 -1.27,0.25835 l -0.49959,0.25835 v 2.78965 2.78965 h -1.35466 -1.35467 z m 17.41469,3.98362 c -3.24981,-0.98176 -3.44434,-6.71439 -0.27282,-8.03953 2.76194,-1.15402 5.21013,0.60268 5.21013,3.73854 v 1.07937 h -2.44652 -2.44653 l 0.16863,0.48373 c 0.30107,0.86366 2.02205,1.23736 3.83542,0.83284 l 0.55034,-0.12277 v 0.9906 c 0,0.97401 -0.009,0.99238 -0.52917,1.09644 -0.733,0.1466 -3.52256,0.10601 -4.06948,-0.0592 z m 2.56665,-5.23078 c 0,-1.80756 -2.11417,-1.85568 -2.47404,-0.0563 l -0.1083,0.54148 h 1.29117 1.29117 z m 3.556,1.24716 v -4.14866 h 1.08925 c 0.93759,0 1.1041,0.0468 1.19588,0.33594 0.10487,0.33043 0.1149,0.32981 0.61133,-0.0372 2.75093,-2.03385 4.72354,-0.0222 4.72354,4.81715 v 3.18145 h -1.27 -1.27 v -2.75632 c 0,-3.13704 -0.1137,-3.50901 -1.0726,-3.50901 -1.22739,0 -1.29807,0.18492 -1.29807,3.39626 v 2.86907 h -1.35467 -1.35466 z m 11.18803,3.85549 c -1.13051,-0.58311 -1.2755,-0.97492 -1.33717,-3.61322 l -0.0551,-2.35893 h -0.66453 -0.66454 v -1.016 -1.016 h 0.65849 c 0.72884,0 0.70952,0.0398 0.96609,-1.98967 l 0.11239,-0.889 h 1.07885 1.07885 v 1.43933 1.43934 h 1.10067 1.10066 v 1.016 1.016 h -1.10066 -1.10067 v 1.778 c 0,2.18637 0.22171,2.55073 1.46669,2.4104 l 0.74977,-0.0845 -0.0499,1.03839 -0.0499,1.03838 -1.35467,0.0455 c -1.03142,0.0346 -1.49322,-0.026 -1.9353,-0.254 z m 4.39063,-3.85549 v -4.14866 h 1.27 1.27 v 4.14866 4.14867 h -1.27 -1.27 z m 4.23334,0 v -4.14866 h 1.10066 c 0.86549,0 1.10067,0.0543 1.10067,0.254 0,0.33325 0.13582,0.3209 0.93133,-0.0847 2.96717,-1.51275 4.37902,0.002 4.45771,4.78367 l 0.055,3.34433 h -1.28271 -1.28271 v -2.75632 c 0,-3.51262 -0.56319,-4.36206 -2.09383,-3.15806 l -0.44617,0.35096 v 2.78171 2.78171 h -1.27 -1.27 z m 9.87189,3.81686 c -2.44868,-1.49304 -0.99178,-4.37219 2.36633,-4.67638 1.23608,-0.11197 1.30975,-0.14098 1.20997,-0.47652 -0.28141,-0.9463 -1.21284,-1.20764 -3.16999,-0.88944 l -0.81313,0.13221 0.0511,-0.98437 c 0.0603,-1.16152 0.11338,-1.18717 2.52353,-1.22032 3.40319,-0.0468 3.8776,0.60266 3.8776,5.30852 v 3.13811 h -1.00459 c -0.84787,0 -1.02096,-0.0516 -1.10957,-0.33076 -0.10409,-0.32799 -0.10953,-0.32799 -0.64641,-6.8e-4 -0.75197,0.4585 -2.53259,0.45828 -3.28487,-3.4e-4 z m 3.08755,-1.60688 c 0.53723,-0.22448 0.58723,-0.30559 0.58723,-0.95288 v -0.70752 l -0.84105,0.0808 c -1.32586,0.12739 -1.84808,0.95607 -0.98394,1.56134 0.46125,0.32307 0.50659,0.32374 1.23776,0.0182 z m -16.43078,-7.49132 c -0.94286,-0.24393 -1.28844,-1.55821 -0.59266,-2.25399 0.46698,-0.46698 1.66212,-0.46049 2.26316,0.0123 1.21827,0.9583 -0.0504,2.66082 -1.6705,2.2417 z"
       id="path1728" /></g></svg>
