<?xml version="1.0" encoding="UTF-8" standalone="no"?>
<!-- Created with Inkscape (http://www.inkscape.org/) -->

<svg
   width="192.804mm"
   height="123.77268mm"
   viewBox="0 0 192.804 123.77268"
   version="1.1"
   id="svg5"
   xml:space="preserve"
   inkscape:export-filename="logoNombre.svg"
   inkscape:export-xdpi="102.80952"
   inkscape:export-ydpi="102.80952"
   xmlns:inkscape="http://www.inkscape.org/namespaces/inkscape"
   xmlns:sodipodi="http://sodipodi.sourceforge.net/DTD/sodipodi-0.dtd"
   xmlns="http://www.w3.org/2000/svg"
   xmlns:svg="http://www.w3.org/2000/svg"><sodipodi:namedview
     id="namedview7"
     pagecolor="#ffffff"
     bordercolor="#000000"
     borderopacity="0.25"
     inkscape:showpageshadow="2"
     inkscape:pageopacity="0.0"
     inkscape:pagecheckerboard="0"
     inkscape:deskcolor="#d1d1d1"
     inkscape:document-units="mm"
     showgrid="false" /><defs
     id="defs2" /><g
     inkscape:label="Capa 1"
     inkscape:groupmode="layer"
     id="layer1"
     transform="translate(-8.6926605,-61.307924)"><path
       style="fill:#cbd4f3;fill-opacity:1;stroke-width:0.408822"
       d="m 36.092213,181.80455 c -0.132073,-1.80184 -0.45648,-7.03297 -0.720918,-11.62473 l -0.4808,-8.34867 H 22.972811 11.055127 l -0.480798,8.34867 c -0.264438,4.59176 -0.5888519,9.82289 -0.7209179,11.62473 l -0.240121,3.27606 H 22.972811 36.332333 Z m 129.416737,2.40456 c 11.08708,-1.9474 18.87976,-4.82478 24.97224,-9.22079 1.95107,-1.40779 5.32286,-4.83886 6.8113,-6.93104 0.92805,-1.3045 3.0103,-5.43433 3.0103,-5.97049 0,-0.1406 -4.60488,-0.25564 -10.23306,-0.25564 h -10.23305 l -0.47282,2.0079 c -1.27998,5.4357 -5.52793,11.40122 -10.4345,14.65344 -4.96866,3.29338 -6.47047,3.6291 -16.23461,3.6291 -4.73921,0 -8.58918,-0.17175 -8.71464,-0.38878 -0.12358,-0.21381 -0.34044,-4.77916 -0.48187,-10.14522 l -0.25712,-9.75644 H 131.4978 119.75449 l -0.24933,2.21926 c -0.13718,1.22059 -0.25441,3.45572 -0.26063,4.96692 -0.006,1.51123 -0.2711,5.31569 -0.58864,8.45436 -0.31756,3.13868 -0.58091,6.1347 -0.58522,6.65781 l -0.007,0.95111 21.25193,-0.002 c 19.56429,-0.002 21.64439,-0.0706 26.19422,-0.86979 z M 40.240419,156.29669 c 0.397314,-0.22734 0.72239,-0.70709 0.72239,-1.06614 0,-0.52658 -0.248417,-0.585 -1.285001,-0.30215 -0.706748,0.19284 -2.560921,0.35062 -4.120384,0.35062 -2.45683,0 -2.971515,-0.13676 -3.854999,-1.02481 -1.94728,-1.95718 -1.533403,-2.14558 4.713462,-2.14558 6.329807,0 6.254537,0.039 5.188642,-2.6884 -0.771332,-1.97367 -2.888725,-2.96451 -6.374796,-2.98311 -4.629599,-0.0246 -7.314613,2.02946 -7.314613,5.59598 0,3.5468 3.104989,5.29911 8.667992,4.89182 1.614204,-0.11823 3.259991,-0.40089 3.657307,-0.62823 z m -9.324395,-5.81747 c -0.497123,-0.85997 1.750097,-2.31725 3.816437,-2.4749 2.423954,-0.18493 3.99846,0.52875 4.182079,1.89563 0.12339,0.9186 0.03401,0.94053 -3.831666,0.94053 -2.176905,0 -4.051989,-0.16256 -4.16685,-0.36126 z m 24.690433,5.63726 c 1.412027,-0.78066 1.567119,-0.77988 1.567119,0.008 0,0.44364 0.418365,0.63408 1.392969,0.63408 h 1.392971 l -0.107969,-7.4935 -0.107967,-7.4935 -1.285001,-0.055 -1.285,-0.0551 v 3.11976 3.11976 l -0.889614,-0.6032 c -2.558985,-1.73511 -7.909116,-1.08451 -10.068734,1.2244 -1.07231,1.14645 -1.298573,1.71076 -1.298573,3.23879 0,2.75581 1.217472,4.23695 4.151537,5.05061 1.611114,0.44679 5.154199,0.0701 6.538265,-0.69508 z m -5.909318,-1.06407 c -2.234888,-1.00893 -2.761509,-4.15798 -0.992478,-5.9348 0.874506,-0.87833 1.40673,-1.02479 3.7243,-1.02479 2.31757,0 2.849793,0.14651 3.724301,1.02479 1.323722,1.32954 1.361398,3.36537 0.09151,4.94378 -0.783463,0.9738 -1.293933,1.17531 -3.261923,1.28776 -1.28321,0.0733 -2.761777,-0.0602 -3.285702,-0.29674 z m 37.869519,1.04477 c 2.850378,-1.21935 3.962179,-3.88546 2.778497,-6.66294 -1.569039,-3.68174 -10.696516,-4.27243 -14.033017,-0.90818 -2.732415,2.75516 -1.310746,6.82099 2.818575,8.0609 2.368127,0.71108 6.140818,0.49203 8.435945,-0.48978 z m -7.658628,-1.16976 c -1.716399,-0.83288 -2.242024,-1.70521 -2.101129,-3.48704 0.192637,-2.43615 1.625144,-3.34756 5.261512,-3.34756 2.529819,0 3.036163,0.13213 3.924842,1.02479 1.39698,1.40313 1.405632,3.72479 0.01904,5.11745 -0.789808,0.79327 -1.520383,1.03334 -3.459622,1.13684 -1.487053,0.0794 -2.927092,-0.0962 -3.644685,-0.44448 z m 52.77729,1.58272 c 2.92978,-0.93019 4.35594,-2.53506 4.35594,-4.90171 0,-2.45067 -1.27709,-3.90856 -4.22693,-4.82538 -3.95764,-1.23005 -9.34495,-0.0243 -10.96924,2.45497 -0.7189,1.09729 -0.80582,3.2384 -0.19013,4.68309 1.15404,2.70795 6.6171,3.99022 11.03036,2.58903 z m -6.58484,-1.63598 c -1.51847,-0.70619 -2.19575,-1.93769 -2.03174,-3.69438 0.18165,-1.94587 1.76676,-3.01198 4.77255,-3.20993 2.09656,-0.13804 2.67464,-0.0112 3.85073,0.84253 1.23108,0.89403 1.38387,1.21129 1.38387,2.87354 0,1.65307 -0.15494,1.98017 -1.34348,2.83651 -1.56606,1.12831 -4.61444,1.28999 -6.63193,0.35173 z m -112.17943,-0.75762 -0.04209,-2.64197 3.785236,-0.21136 c 3.253166,-0.18166 4.010361,-0.37066 5.386826,-1.34467 2.754758,-1.94928 2.558146,-4.75929 -0.448977,-6.41678 -1.313075,-0.72376 -2.334816,-0.86177 -6.523845,-0.88121 l -4.966933,-0.023 -0.1084,7.08052 -0.108402,7.08052 h 1.534337 1.534335 z m 0.05392,-4.43853 c -0.08159,-0.17437 -0.193351,-1.53357 -0.248344,-3.02043 l -0.09999,-2.70339 3.408888,0.22737 c 2.477852,0.16528 3.619182,0.43084 4.178857,0.97236 0.915415,0.88571 1.0005,2.42068 0.182649,3.29508 -1.015587,1.08578 -7.023541,2.08064 -7.42206,1.22901 z m 53.692013,5.14299 c -0.648074,-4.62042 0.979729,-7.21539 4.25764,-6.78731 1.362847,0.17798 1.494111,0.10992 1.383847,-0.71755 -0.156517,-1.17457 -1.704816,-1.40117 -3.646711,-0.53372 -1.47097,0.65711 -2.085215,0.70464 -1.911646,0.14795 0.05437,-0.17437 -0.523884,-0.31704 -1.284999,-0.31704 h -1.383846 v 5.07261 5.07261 h 1.428738 1.428742 z m 47.309147,1.4404 c 1.59269,-0.51017 3.48205,-2.45465 3.48205,-3.58364 0,-0.93905 -2.18538,-3.10543 -3.13266,-3.10543 -0.45164,0 -0.82118,-0.19022 -0.82118,-0.42271 0,-0.2325 0.21094,-0.42272 0.46875,-0.42272 0.80001,0 2.29894,-1.7915 2.29894,-2.74767 0,-2.39624 -3.48682,-3.70833 -9.31454,-3.50506 l -3.53545,0.12334 -0.10835,7.08052 -0.10833,7.08052 h 4.60943 c 2.53521,0 5.30786,-0.22371 6.16145,-0.49713 z m -7.82516,-1.78337 c -0.1164,-0.32428 -0.15529,-1.32295 -0.0864,-2.21926 l 0.12523,-1.62964 2.96539,-0.10833 c 3.6535,-0.1334 4.94231,0.44601 4.94231,2.22185 0,1.70197 -1.27538,2.31096 -4.85588,2.31871 -2.10199,0.005 -2.93606,-0.1529 -3.09057,-0.58339 z m 0.0154,-6.75685 c -0.12987,-0.55314 -0.17773,-1.55182 -0.1064,-2.21928 0.12522,-1.17168 0.21156,-1.21729 2.50202,-1.32266 3.03969,-0.1398 4.34923,0.53319 4.34923,2.23519 0,1.05713 -0.2188,1.33545 -1.38384,1.76021 -0.76113,0.2775 -2.22559,0.51528 -3.25439,0.52839 -1.64896,0.0211 -1.89852,-0.0952 -2.10665,-0.98185 z m 36.79411,5.6657 c 0,-4.25003 0.62892,-5.12252 3.90173,-5.41269 1.92971,-0.17108 2.28191,-0.0722 3.18657,0.89505 0.92395,0.98783 1.01708,1.39876 1.01708,4.48834 v 3.40095 h 1.38385 1.38384 v -3.36185 c 0,-5.10577 -0.91095,-6.4936 -4.60226,-7.01153 -1.79045,-0.25122 -2.97751,0.0128 -5.84523,1.3014 -0.61099,0.27449 -0.71061,0.20255 -0.50664,-0.36577 0.20937,-0.58331 -0.004,-0.70747 -1.21635,-0.70747 h -1.47028 v 5.07261 5.07261 l 1.38385,-8.4e-4 1.38384,-8.5e-4 v -3.36981 z m 18.6178,0.003 c -0.0438,-4.25023 0.58003,-5.12383 3.86701,-5.41526 1.92971,-0.17108 2.2819,-0.0722 3.18658,0.89504 0.92394,0.98783 1.01706,1.39877 1.01706,4.48835 v 3.40095 h 1.38384 1.38386 l -7.9e-4,-3.27606 c -7.9e-4,-4.08038 -0.77227,-5.94959 -2.76709,-6.70413 -1.86467,-0.70531 -3.82658,-0.67936 -5.73306,0.0759 -2.18355,0.86493 -2.38628,0.89058 -2.27347,0.28754 0.0639,-0.34219 -0.38879,-0.5284 -1.28499,-0.5284 h -1.38386 v 5.07261 5.07261 h 1.31972 1.31972 l -0.0346,-3.36908 z m 17.95527,-1.7035 v -5.07261 h -1.38386 -1.38384 v 5.07261 5.07261 h 1.38384 1.38386 z m 7.90769,1.9258 c 0,-4.20086 0.82533,-5.34725 4.05593,-5.63367 1.97816,-0.17539 2.32092,-0.0808 3.23008,0.89119 0.92395,0.98782 1.01706,1.39876 1.01706,4.48834 v 3.40095 h 1.38385 1.38385 l -7.8e-4,-3.27606 c -8e-4,-4.26635 -0.76474,-6.01676 -2.96479,-6.79336 -1.8134,-0.64009 -4.99246,-0.36513 -6.69473,0.57907 -1.36911,0.75951 -1.41047,0.75891 -1.41047,-0.0208 0,-0.43366 -0.40616,-0.63391 -1.28499,-0.63358 l -1.28501,4.2e-4 v 5.07224 5.07226 l 1.28501,-1.3e-4 1.28499,-6e-5 z m -7.71,-10.59152 c 0,-0.61697 -0.30683,-0.88292 -1.13547,-0.98416 -1.32739,-0.16217 -2.03776,0.42947 -1.68744,1.40547 0.38161,1.06322 2.82291,0.69887 2.82291,-0.42131 z M 35.032021,132.0302 v -6.12939 h 8.525523 c 24.405085,0 40.711006,-3.61004 50.248897,-11.12482 3.622627,-2.85423 3.978927,-3.21955 6.053407,-6.20661 3.249062,-4.67834 4.352832,-8.3551 4.359772,-14.522754 0.009,-7.610994 -1.83924,-12.484074 -6.667152,-17.582488 C 93.832563,72.535796 93.342695,72.148056 89.397401,70.009299 80.91257,65.409631 70.771374,62.966246 56.58048,62.102496 51.390876,61.786636 12.118157,61.392442 8.7688731,61.622603 c -0.201004,0.01438 0.0095,0.453116 0.467893,0.976226 0.458343,0.52311 1.0231279,1.486603 1.2550749,2.141105 0.28673,0.809078 0.421721,12.750229 0.421721,37.304836 v 36.11484 h 12.05923 12.059229 z m 0,-37.50563 c 0,-28.983994 0.02076,-29.806875 0.770141,-30.531947 0.701106,-0.678356 1.578283,-0.728012 9.785769,-0.554025 7.403781,0.157051 9.622582,0.350481 12.410557,1.082423 7.209785,1.892779 11.118886,3.995189 15.59473,8.387192 2.792621,2.740313 5.349493,7.887536 6.395209,12.874162 1.00795,4.80652 0.914278,12.828483 -0.198506,16.999705 -1.964482,7.36382 -5.440142,12.30897 -11.15021,15.86448 -3.508454,2.18461 -5.083864,2.85863 -9.686923,4.14446 -3.615888,1.01006 -4.807193,1.12225 -13.937306,1.31242 l -9.983461,0.20794 z M 143.3674,131.60749 v -6.55212 h 11.73671 c 11.24849,0 11.81179,0.0383 13.54192,0.92249 2.49975,1.27744 7.08524,6.3283 8.6608,9.53977 l 1.29617,2.64198 h 9.66374 c 5.31504,0 9.66373,-0.11328 9.66373,-0.25178 0,-0.64433 -1.91572,-3.15045 -4.16981,-5.4549 -2.99918,-3.06619 -7.09292,-5.75027 -11.63139,-7.62616 -4.49499,-1.85793 -4.47312,-2.38047 0.1835,-4.38347 5.75943,-2.47735 8.79812,-4.52237 12.26116,-8.25171 3.32222,-3.57768 5.18215,-6.76808 6.28421,-10.77945 0.83776,-3.049336 0.85476,-11.613566 0.0297,-14.999866 -2.98953,-12.271041 -14.83277,-20.275766 -34.69279,-23.448489 -8.67398,-1.385709 -15.92226,-1.750474 -32.51463,-1.636272 -15.55725,0.107044 -15.81369,0.122701 -15.71129,0.954274 0.0572,0.464986 0.27484,1.89166 0.48354,3.17039 0.76741,4.701904 1.18724,21.153064 1.1894,46.604613 l 10e-4,26.10282 h 11.86153 11.86154 z m 0.26009,-19.30143 c -0.33199,-9.79868 -0.3313,-26.721061 0.001,-38.505211 l 0.25968,-9.194113 h 7.69694 c 9.24395,0 13.17888,0.764742 17.00173,3.304228 3.09659,2.057036 3.4884,2.406654 5.87927,5.246262 3.53673,4.200506 5.22197,8.865889 6.09168,16.863967 1.19784,11.015767 -2.49447,21.881557 -9.30318,27.377547 -1.1944,0.96412 -2.63164,1.93994 -3.1939,2.16848 -0.58523,0.23789 -5.97115,0.41553 -12.59797,0.41553 h -11.57572 l -0.26007,-7.67669 z"
       id="path237"
       sodipodi:nodetypes="sscccsscccscsssscssssscccccscccccsssscsscssssssssssscccccccsssssscssssscsssssssscssssssssssssscsssccssssccccccsscsssssssssscccccscsssssscccscccccsscccsssssssssssscccsssssccccccscsssccccssssccccccccccccccccssssccccscsscccccsssssccssscssscsssccccsscssssssscsccssscssssssscsssscccccsscsssssssccs" /></g></svg>
